<?xml version="1.0" encoding="UTF-8"?> <svg xmlns="http://www.w3.org/2000/svg" width="110" height="104" viewBox="0 0 110 104" fill="none"><path d="M110 0H0V103.572H110V0Z" fill="black"></path><path d="M20.8984 85.4043V18.6399H48.324C53.2879 18.6399 57.4327 19.3597 60.7834 20.7992C64.134 22.2387 66.6408 24.2243 68.3533 26.7559C70.041 29.2875 70.8849 32.2658 70.8849 35.6164C70.8849 38.1728 70.3637 40.4562 69.2965 42.417C68.2292 44.4025 66.7649 46.0158 64.9282 47.3064C63.0916 48.597 60.9571 49.4905 58.5496 50.0117V50.657C61.2053 50.7811 63.6624 51.5257 65.9458 52.8411C68.2044 54.1566 70.041 56.018 71.4309 58.3759C72.8208 60.7338 73.5158 63.5384 73.5158 66.8145C73.5158 70.3885 72.6223 73.5654 70.8104 76.37C68.9986 79.1746 66.3926 81.3836 62.9427 82.9968C59.5176 84.6101 55.3231 85.4043 50.3592 85.4043H20.8984ZM36.2865 46.264H45.7676C47.5794 46.264 49.1927 45.9413 50.6074 45.3208C52.0221 44.7004 53.139 43.8069 53.958 42.6403C54.777 41.4738 55.1742 40.0839 55.1742 38.4458C55.1742 36.1376 54.3551 34.301 52.717 32.9607C51.0789 31.5957 48.8452 30.9255 45.9909 30.9255H36.2369V46.264H36.2865ZM36.2865 72.9201H46.81C50.4585 72.9201 53.139 72.2252 54.8515 70.8353C56.564 69.4454 57.4327 67.5343 57.4327 65.102C57.4327 63.3646 57.0108 61.8258 56.1669 60.5104C55.3231 59.1949 54.1317 58.1773 52.5929 57.4576C51.0541 56.7378 49.2175 56.3655 47.083 56.3655H36.2617V72.9201H36.2865Z" fill="white"></path><path d="M92.5794 69.1721H76.4219V85.3296H92.5794V69.1721Z" fill="white"></path></svg> 