<svg width="133" height="133" viewBox="0 0 133 133" fill="none" xmlns="http://www.w3.org/2000/svg">
<path d="M50.2682 132C77.4783 132 99.5364 109.942 99.5364 82.7318C99.5364 55.5218 77.4783 33.4636 50.2682 33.4636C23.0581 33.4636 1 55.5218 1 82.7318C1 109.942 23.0581 132 50.2682 132Z" stroke="black" stroke-width="0.6996" stroke-miterlimit="10"/>
<path d="M82.7316 99.5364C109.942 99.5364 132 77.4783 132 50.2682C132 23.0581 109.942 1 82.7316 1C55.5215 1 33.4634 23.0581 33.4634 50.2682C33.4634 77.4783 55.5215 99.5364 82.7316 99.5364Z" stroke="black" stroke-width="0.6996" stroke-miterlimit="10"/>
<path d="M83.6871 119.015L118.824 83.6865" stroke="black" stroke-width="0.6996" stroke-miterlimit="10"/>
<path d="M18.9501 44.7303L48.1673 14.9402" stroke="black" stroke-width="0.6996" stroke-miterlimit="10"/>
</svg>
