<svg width="138" height="22" viewBox="0 0 138 22" fill="none" xmlns="http://www.w3.org/2000/svg">
<path d="M12.283 9.58204C13.5398 9.93551 14.5315 10.5934 15.2482 11.5556C15.9748 12.5178 16.3381 13.6077 16.3381 14.8252C16.3381 16.7496 15.6901 18.242 14.394 19.3024C13.098 20.3628 11.1539 20.893 8.57161 20.893H0V0.254395H8.29669C10.4764 0.254395 12.1358 0.735505 13.2747 1.68791C14.4137 2.64031 14.9831 3.92654 14.9831 5.53679C14.9831 6.45973 14.7377 7.27467 14.2369 7.99143C13.7362 8.71801 13.0882 9.23839 12.283 9.58204ZM3.90779 3.5338V8.4529H8.29669C9.10182 8.4529 9.7302 8.20744 10.1819 7.71651C10.6335 7.22558 10.8593 6.60701 10.8593 5.8608C10.8593 5.11459 10.6335 4.54511 10.172 4.14255C9.71057 3.73999 9.10182 3.5338 8.32615 3.5338H3.90779ZM8.44397 17.6136C9.70075 17.6136 10.6237 17.3387 11.2128 16.7987C11.8019 16.2587 12.0965 15.5419 12.0965 14.6582C12.0965 13.7549 11.8216 12.9989 11.2619 12.3902C10.7022 11.7814 9.79893 11.477 8.54216 11.477H3.90779V17.6038H8.44397V17.6136Z" fill="black"/>
<path d="M26.5493 5.41968C27.0206 5.41968 27.4329 5.44913 27.7864 5.50804V8.82672C27.4329 8.80709 27.1187 8.79727 26.8536 8.79727C23.9081 8.79727 22.2291 10.0246 21.8167 12.4792V20.8741H18.0464V5.55714H21.8167V8.98382C22.072 7.92341 22.6022 7.05938 23.4073 6.40153C24.2124 5.75351 25.2532 5.41968 26.5493 5.41968Z" fill="black"/>
<path d="M41.0807 17.2904C41.0807 18.1151 41.444 18.5472 42.1706 18.5864V20.7662C41.8368 20.9233 41.3655 20.992 40.7764 20.992C39.8534 20.992 39.1072 20.7956 38.5377 20.4029C37.9683 20.0101 37.6835 19.421 37.6835 18.6355V18.2624C36.6231 20.1476 34.8656 21.0902 32.4208 21.0803C30.948 21.0803 29.7206 20.6876 28.7486 19.9021C27.7766 19.1166 27.2856 17.9482 27.2856 16.4067C27.2856 15.6212 27.4231 14.9536 27.698 14.4135C27.9729 13.8735 28.405 13.4317 28.9744 13.1077C29.5439 12.7738 30.1134 12.5284 30.6829 12.3615C31.2523 12.1945 31.9691 12.0276 32.8528 11.8607C33.0491 11.8214 33.383 11.7723 33.8641 11.7036C34.3452 11.6349 34.7085 11.576 34.9441 11.5269C35.1798 11.4778 35.4645 11.4189 35.818 11.3501C36.1715 11.2814 36.4562 11.2029 36.6918 11.1145C36.9275 11.0261 37.1337 10.9378 37.3202 10.8396V10.7807C37.3202 9.0526 36.3973 8.18856 34.5416 8.17874C32.8724 8.17874 31.9298 8.80713 31.7236 10.0639H28.189C28.4639 6.96124 30.5945 5.40991 34.571 5.41972C36.8882 5.41972 38.5574 5.91065 39.5687 6.88269C40.58 7.85473 41.0906 9.44534 41.0906 11.6643V17.2904H41.0807ZM37.3104 16.0532V13.1077C36.8391 13.3433 35.5431 13.687 33.4124 14.119C32.5484 14.3154 31.9396 14.5706 31.596 14.9143C31.2425 15.2481 31.0756 15.7194 31.0756 16.3085C31.0756 16.9173 31.2818 17.4082 31.6844 17.8009C32.0869 18.1937 32.6662 18.3901 33.4223 18.3901C35.0914 18.3802 36.3875 17.6046 37.3104 16.0532Z" fill="black"/>
<path d="M43.1333 0H46.9036V2.97503H43.1333V0ZM43.1333 5.56713H46.9036V20.8841H43.1333V5.56713Z" fill="black"/>
<path d="M57.7034 5.41968C61.3363 5.41968 63.1527 7.4914 63.1527 11.6348V20.8839H59.3824V11.841C59.3824 9.64166 58.3613 8.5518 56.319 8.5518C55.2586 8.5518 54.4044 8.89545 53.7662 9.59257C53.128 10.2897 52.7548 10.9966 52.637 11.733V20.8937H48.8667V5.57677H52.637V8.75799C52.9119 8.01178 53.5011 7.26557 54.3946 6.53899C55.288 5.81242 56.3975 5.41968 57.7034 5.41968Z" fill="black"/>
<path d="M73.7868 10.0641C73.4333 8.84655 72.4613 8.2378 70.8707 8.2378C70.0656 8.2378 69.4372 8.3949 68.9757 8.69927C68.5142 9.00365 68.2884 9.43567 68.2884 9.97569C68.2884 10.8004 68.9168 11.3601 70.1736 11.6547L72.8442 12.2732C73.5315 12.4303 74.0617 12.558 74.425 12.6562C74.7883 12.7543 75.2007 12.9114 75.6622 13.1176C76.1236 13.3238 76.4575 13.5595 76.6735 13.8246C76.8895 14.0897 77.0859 14.4431 77.2528 14.885C77.4197 15.3268 77.5081 15.8472 77.5081 16.4363C77.5081 17.968 76.8895 19.1266 75.6622 19.9121C74.4348 20.6976 72.8344 21.0805 70.8707 21.0805C68.9659 21.0805 67.4342 20.6681 66.2756 19.8335C65.117 18.999 64.4395 17.7618 64.2432 16.1123H67.7189C68.0528 17.5654 69.123 18.3018 70.9296 18.3018C71.8133 18.3018 72.5006 18.1349 72.9915 17.8011C73.4824 17.4673 73.7279 17.0058 73.7279 16.4167C73.7279 15.9257 73.5806 15.5625 73.2861 15.3268C72.9915 15.0912 72.5104 14.9046 71.8526 14.7671L69.3096 14.2075C67.6993 13.854 66.5407 13.314 65.824 12.6071C65.1072 11.8903 64.7537 10.987 64.7537 9.8775C64.7537 8.5029 65.2938 7.42286 66.3738 6.62755C67.4538 5.83225 68.9364 5.42969 70.8216 5.42969C72.6871 5.42969 74.1599 5.84207 75.2203 6.65701C76.2807 7.47195 76.9484 8.6109 77.2135 10.0837H73.7868V10.0641Z" fill="black"/>
<path d="M85.2836 18.1054C85.7352 18.1054 86.2654 18.0366 86.884 17.8992V20.6484C86.1182 20.9233 85.2345 21.0607 84.233 21.0509C82.8584 21.0509 81.798 20.7662 81.042 20.2065C80.2859 19.6371 79.903 18.5766 79.903 17.0253V8.54206H77.4287V5.56704H79.903V1.73779H83.6733V5.56704H86.7367V8.54206H83.6733V16.6129C83.6635 17.6046 84.1937 18.1054 85.2836 18.1054Z" fill="black"/>
<path d="M91.9995 5.87133C92.8439 5.56696 93.6981 5.41968 94.5622 5.41968C95.4262 5.41968 96.2902 5.56696 97.1248 5.87133C97.9692 6.17571 98.7645 6.61754 99.5205 7.20666C100.277 7.79577 100.885 8.62053 101.347 9.6613C101.808 10.7119 102.044 11.9098 102.044 13.2451C102.044 14.5804 101.808 15.7685 101.347 16.8092C100.885 17.85 100.277 18.6649 99.5205 19.2639C98.7645 19.8628 97.9692 20.3145 97.1248 20.6188C96.2804 20.9232 95.4262 21.0705 94.5622 21.0705C93.6981 21.0705 92.8341 20.9232 91.9995 20.6188C91.1551 20.3145 90.3598 19.8628 89.6234 19.2639C88.8772 18.6649 88.2783 17.8402 87.807 16.8092C87.3455 15.7685 87.1099 14.5804 87.1099 13.2451C87.1099 11.9098 87.3455 10.7119 87.807 9.6613C88.2685 8.61071 88.8772 7.79577 89.6234 7.20666C90.3598 6.62736 91.1551 6.17571 91.9995 5.87133ZM98.4012 13.2647C98.4012 11.6741 98.0379 10.4762 97.3114 9.68094C96.5848 8.88563 95.6717 8.48307 94.572 8.48307C93.4723 8.48307 92.5592 8.88563 91.8326 9.68094C91.106 10.4762 90.7427 11.6741 90.7427 13.2647C90.7427 14.8357 91.1158 16.0237 91.8522 16.8289C92.5886 17.634 93.5018 18.0267 94.5818 18.0267C95.6618 18.0267 96.5651 17.6242 97.3114 16.8289C98.0281 16.0237 98.4012 14.8357 98.4012 13.2647Z" fill="black"/>
<path d="M111.794 5.41968C112.265 5.41968 112.678 5.44913 113.031 5.50804V8.82672C112.678 8.80709 112.363 8.79727 112.098 8.79727C109.153 8.79727 107.474 10.0246 107.061 12.4792V20.8741H103.291V5.55714H107.061V8.98382C107.317 7.92341 107.847 7.05938 108.652 6.40153C109.447 5.75351 110.498 5.41968 111.794 5.41968Z" fill="black"/>
<path d="M132.767 5.41968C134.338 5.41968 135.605 5.94006 136.567 6.98083C137.529 8.0216 138 9.6613 138 11.8901V20.8839H134.23V11.9981C134.23 10.8003 133.975 9.9264 133.464 9.37656C132.954 8.82672 132.276 8.5518 131.432 8.5518C130.371 8.5518 129.517 8.90527 128.889 9.62203C128.26 10.3388 127.946 11.0163 127.946 11.6741V20.8937H124.176V12.0079C124.176 10.8297 123.92 9.95586 123.41 9.3962C122.899 8.83654 122.212 8.5518 121.348 8.5518C120.327 8.5518 119.522 8.89545 118.923 9.59257C118.324 10.2897 117.99 11.0064 117.911 11.7527V20.8839H114.141V5.56696H117.911V8.74817C118.147 8.00196 118.687 7.25575 119.532 6.52918C120.366 5.79278 121.446 5.4295 122.742 5.4295C125.256 5.4295 126.856 6.56845 127.563 8.83654C127.936 7.95287 128.594 7.16738 129.537 6.47027C130.489 5.77315 131.559 5.41968 132.767 5.41968Z" fill="black"/>
</svg>
