<svg width="158" height="166" viewBox="0 0 158 166" fill="none" xmlns="http://www.w3.org/2000/svg">
<rect x="32.5938" y="86.4175" width="80.4654" height="56.0483" transform="rotate(-23.1875 32.5938 86.4175)" fill="#15CA68"/>
<path d="M31.2428 86.3229L82.1423 95.2769L107.19 53" stroke="white"/>
<path d="M156.801 114.089L105.89 165" stroke="black" stroke-miterlimit="10"/>
<path d="M67.8555 14.7211L16.9447 65.6318" stroke="black" stroke-miterlimit="10"/>
<path d="M51.9102 114.089L0.99937 165" stroke="black" stroke-miterlimit="10"/>
<path d="M156.301 114.203L51.7989 114.203L51.7989 52.751C51.7989 23.8936 75.1924 0.50003 104.05 0.500027C132.907 0.500025 156.301 23.8936 156.301 52.751L156.301 114.203Z" stroke="black"/>
<path d="M106.004 164.5L1.50205 164.5L1.50205 103.048C1.50204 74.1909 24.8956 50.7974 53.753 50.7974C82.6104 50.7974 106.004 74.1909 106.004 103.048L106.004 164.5Z" stroke="black"/>
</svg>
