<svg width="216" height="159" viewBox="0 0 216 159" fill="none" xmlns="http://www.w3.org/2000/svg">
<path d="M107.781 100.741C166.755 100.742 214.562 78.4167 214.562 50.8776C214.562 23.3385 166.755 1.0137 107.781 1.01369C48.8076 1.01368 0.999996 23.3385 0.999991 50.8776C0.999986 78.4166 48.8076 100.741 107.781 100.741Z" stroke="white" stroke-miterlimit="10"/>
<path d="M214.555 52.0243C214.555 110.772 166.782 158.395 107.849 158.395C48.915 158.395 1.14208 110.772 1.14209 52.0243" stroke="white" stroke-miterlimit="10"/>
<path d="M107.621 87.4384C151.251 87.4384 186.621 70.8668 186.621 50.4247C186.621 29.9826 151.251 13.411 107.621 13.411C63.991 13.411 28.6218 29.9826 28.6218 50.4247C28.6218 70.8668 63.991 87.4384 107.621 87.4384Z" stroke="white" stroke-miterlimit="10"/>
<path d="M107.621 70.6215C131.724 70.6215 151.264 61.47 151.264 50.1811C151.264 38.8922 131.724 29.7407 107.621 29.7407C83.5177 29.7407 63.978 38.8922 63.978 50.1811C63.978 61.47 83.5177 70.6215 107.621 70.6215Z" stroke="white" stroke-miterlimit="10"/>
</svg>
