<svg width="215" height="190" viewBox="0 0 215 190" fill="none" xmlns="http://www.w3.org/2000/svg">
<path d="M107.504 16.6097C81.1017 -9.41988 1.96146 -3.13859 1.00655 37.2793C0.0348869 78.3087 107.504 113.367 107.504 113.367C107.504 113.367 214.965 78.3087 214.002 37.2793C213.047 -3.13859 133.898 -9.41988 107.504 16.6097Z" stroke="white" stroke-miterlimit="10"/>
<path d="M107.504 189.455C107.504 189.455 214.965 154.398 214.002 113.368C213.047 72.9503 133.907 66.669 107.504 92.6986" stroke="white" stroke-miterlimit="10"/>
<path d="M107.504 189.455C107.504 189.455 0.0431517 154.398 1.00644 113.368C1.96135 72.9503 81.1016 66.669 107.504 92.6986" stroke="white" stroke-miterlimit="10"/>
<path d="M1.00684 37.7554V116.308" stroke="white" stroke-miterlimit="10"/>
<path d="M214.002 36.7052V116.308" stroke="white" stroke-miterlimit="10"/>
</svg>
