<svg width="225" height="203" viewBox="0 0 225 203" fill="none" xmlns="http://www.w3.org/2000/svg">
<path d="M101.377 201.67C156.813 201.67 201.754 156.749 201.754 101.335C201.754 45.9216 156.813 1 101.377 1C45.9402 1 1 45.9216 1 101.335C1 156.749 45.9402 201.67 101.377 201.67Z" stroke="white" stroke-miterlimit="10"/>
<path d="M120.704 188.346C167.89 188.346 206.141 150.111 206.141 102.945C206.141 55.7786 167.89 17.543 120.704 17.543C73.519 17.543 35.2676 55.7786 35.2676 102.945C35.2676 150.111 73.519 188.346 120.704 188.346Z" stroke="white" stroke-miterlimit="10"/>
<path d="M140.032 175.025C178.969 175.025 210.532 143.474 210.532 104.554C210.532 65.6337 178.969 34.0829 140.032 34.0829C101.096 34.0829 69.5325 65.6337 69.5325 104.554C69.5325 143.474 101.096 175.025 140.032 175.025Z" stroke="white" stroke-miterlimit="10"/>
<path d="M159.361 161.703C190.048 161.703 214.924 136.837 214.924 106.163C214.924 75.4891 190.048 50.6229 159.361 50.6229C128.674 50.6229 103.798 75.4891 103.798 106.163C103.798 136.837 128.674 161.703 159.361 161.703Z" stroke="white" stroke-miterlimit="10"/>
<path d="M178.691 148.382C201.128 148.382 219.317 130.2 219.317 107.772C219.317 85.3444 201.128 67.163 178.691 67.163C156.254 67.163 138.065 85.3444 138.065 107.772C138.065 130.2 156.254 148.382 178.691 148.382Z" stroke="white" stroke-miterlimit="10"/>
<path d="M198.019 135.057C212.205 135.057 223.706 123.562 223.706 109.382C223.706 95.2013 212.205 83.7059 198.019 83.7059C183.833 83.7059 172.333 95.2013 172.333 109.382C172.333 123.562 183.833 135.057 198.019 135.057Z" stroke="white" stroke-miterlimit="10"/>
</svg>
