<svg width="179" height="207" viewBox="0 0 179 207" fill="none" xmlns="http://www.w3.org/2000/svg">
<path d="M89.7642 198C139.895 198 169 170.99 169 170.99C169 170.99 139.895 145 89.7642 145C39.6332 145 1 156.864 1 171.5C1 186.136 39.6332 198 89.7642 198Z" stroke="white" stroke-miterlimit="10"/>
<path d="M178 49C178 29.67 150.145 14 114 14" stroke="white" stroke-miterlimit="10"/>
<path d="M89.7642 163C139.895 163 169 135.99 169 135.99C169 135.99 139.895 110 89.7642 110C39.6332 110 1 121.864 1 136.5C1 151.136 39.6332 163 89.7642 163Z" stroke="white" stroke-miterlimit="10"/>
<path d="M89.7642 128C139.895 128 169 100.99 169 100.99C169 100.99 139.895 75 89.7642 75C39.6332 75 1 86.8645 1 101.5C1 116.136 39.6332 128 89.7642 128Z" stroke="white" stroke-miterlimit="10"/>
<path d="M89.7642 93C139.895 93 169 65.9904 169 65.9904C169 65.9904 139.895 40 89.7642 40C39.6332 40 1 51.8645 1 66.5C1 81.1355 39.6332 93 89.7642 93Z" stroke="white" stroke-miterlimit="10"/>
<path d="M169 136C174.667 140.937 178 146.977 178 153.5C178 160.023 174.667 166.063 169 171" stroke="white" stroke-miterlimit="10"/>
<path d="M169 101C174.667 105.937 178 111.977 178 118.5C178 125.023 174.667 131.063 169 136" stroke="white" stroke-miterlimit="10"/>
<path d="M169 66C174.667 70.9368 178 76.9769 178 83.5C178 90.0231 174.667 96.0632 169 101" stroke="white" stroke-miterlimit="10"/>
<path d="M169 31C174.667 35.9368 178 41.9769 178 48.5C178 55.0231 174.667 61.0632 169 66" stroke="white" stroke-miterlimit="10"/>
<path d="M169 171C174.667 175.937 178 181.977 178 188.5C178 195.023 174.667 201.063 169 206" stroke="white" stroke-miterlimit="10"/>
<path d="M135.5 1L113 14.5L135.5 29.5" stroke="white" stroke-linecap="round" stroke-linejoin="round"/>
</svg>
